<?xml version="1.0" encoding="utf-8"?>
<!-- Generator: Adobe Illustrator 26.0.1, SVG Export Plug-In . SVG Version: 6.00 Build 0)  -->
<svg version="1.1" id="Layer_1" xmlns="http://www.w3.org/2000/svg" xmlns:xlink="http://www.w3.org/1999/xlink" x="0px" y="0px"
	 viewBox="0 0 1052.4 378" style="enable-background:new 0 0 1052.4 378;" xml:space="preserve">
<style type="text/css">
	.st0{fill:#EEA420;}
	.st1{fill:#364CA0;}
</style>
<g>
	<path class="st0" d="M569,167.2c-0.1,0.1-0.2,0.1-0.3,0.2c0,0,0,0,0,0c0,0,0,0-0.1,0.1c-0.5,0.4-1.1,0.7-1.7,1c0,0,0,0,0,0
		c-3.4,2.1-7.1,2.3-9.1,0.2c-0.5-0.6-0.9-1.2-1.1-2c0,0,0,0,0,0c-0.3-1.1,0-3.4,0.1-3.5c0-0.3,0.1-0.5,0.1-0.7
		c0.1-0.5,0.2-0.9,0.3-1.5c0.1-0.4,0-0.1,0-0.3c2.8-18.6,5.9-37.2,9.1-55.7c1.5-8.5,3.3-16.9,5.1-25.8c0.1-0.6-0.3-1.1-0.9-1.2
		c-2.9-0.3-5.4-0.6-7.9-0.8c-14.1-1-28.2-1.4-40.5,7.1c-21.1,14.5-33,35.2-36.9,59.9c-1.5,9.7-6,16.2-12.8,21.9
		c-3.2,2.7-6.9,6.6-11.4,4.1c-4.4-2.5-2.3-7.5-1.7-11.5c2.8-17.8,6-35.4,8.7-53.2c0.9-6.2,1.3-12.6,0.6-18.8
		c-0.9-8-5.7-11.6-13.5-10.5c-4.2,0.6-8.7,2.5-12.1,5.1c-13.4,10.2-21.2,24.5-28.3,39.3c-0.5,1-1,2-1.6,2.9
		c-0.5,0.8-1.8,0.5-1.8-0.4c0-0.4,0-0.7,0.1-1c1.5-10.9,3.6-21.7,4.3-32.6c0.7-10.7-5.5-15.3-15.9-13c-1.6,0.3-3.4,0.8-4.6,1.8
		c-6.4,5.3-12.8,10.5-18.7,16.3c-2.1,2.1-2.9,5.5-4.2,8.5c-0.2,0.5,0,1,0.4,1.2c0,0,0,0,0,0c0.4,0.2,0.9,0.1,1.2-0.2
		c0.8-0.9,1.6-1.7,2.4-2.5c3.8-3.9,7.3-8.3,11.6-11.6c1.4-1.1,3.2-1.6,5-2.1c2.8-0.7,5.6,1.1,6.3,3.9c0.4,1.6,0.6,3.2,0.4,4.6
		c-2.9,19.2-6.2,38.5-9.5,57.6c-1.4,8.1-3.1,16.1-4.9,24.7c-0.1,0.6,0.4,1.2,1,1.2c3.1-0.2,5.7-0.6,8.3-0.3c5.7,0.6,7.7-2.1,8.4-7.5
		c1.1-8.9,1.6-18.3,4.9-26.4c7-17.3,15.8-33.8,28.2-48c2.5-2.9,6-5.3,9.5-7c4.3-2.1,7.3-0.2,7.5,4.6c0.2,3.8-0.2,7.6-0.8,11.4
		c-2.8,17.9-6,35.8-8.7,53.7c-0.6,4.1-0.5,8.4,0.1,12.4c0.9,5.8,4.9,9.2,10.6,8.2c5.4-0.9,10.9-3.1,15.4-6.1
		c4.7-3.1,8.5-7.4,12.9-11.6c0.5-0.5,1.5-0.2,1.6,0.5c0.3,1.7,0.6,3.1,1,4.5c3.3,11.8,13.7,16.3,24.5,10.5c1.9-1,3.7-2.3,5.3-3.7
		c12.6-10.5,20.6-24.2,27.2-38.9c0.3-0.8,0.8-1.5,1.2-2.3c0.5-0.8,1.7-0.6,1.8,0.4c0.1,0.8,0,1.4-0.1,2.1
		c-1.4,9.4-3.1,18.7-4.3,28.2c-1.7,13.5,6.3,20,18.8,15.1c10-3.9,16.9-11.7,23-20.1c0.3-0.4,0.5-0.9,0.7-1.4c0.2-0.9-0.8-1.6-1.6-1
		C577.6,160.5,573.5,164.1,569,167.2z M552,95.4c-1.5,22.6-14,40.2-27,57.4c-3.4,4.5-7.4,8.7-11.8,12c-5.8,4.5-10.5,2.3-11.9-4.8
		c-0.6-2.9-0.6-5.9-0.8-8.3c0,0,0-0.1,0-0.1c1-18.9,5.5-36.4,14.3-52.5c8.6-15.8,21.7-14.8,35.6-8.5C551.6,90.9,552.1,93.7,552,95.4
		z"/>
	<path class="st0" d="M769.9,277.3c-1.3,1.5-2.4,3.1-3.8,4.4c-4.6,4.3-8.8,9.1-14,12.6c-5.4,3.7-8.9,1.2-8.7-5.3
		c0.1-1.8,0.1-3.7,0.5-5.5c3.4-20,6.9-40,10.4-60c1.2-7,2.7-14,4-21.2c-3.3,0-6.1-0.1-8.9,0c-7.7,0.4-7.8,0.4-8.9,7.9
		c-2.2,15.7-5,31.1-13.7,45c-7.3,11.7-13.8,24.1-24.2,33.4c0,0-0.1,0.1-0.1,0.1c-2.5,3.1-5.8,4.5-8.2,3.3c-2.4-1.2-3.2-4.6-2.3-8.3
		c0,0,0-0.1,0-0.1c-0.2-0.7,0.2-1.6,0.3-2.5c1.7-10.5,3.5-21,5.2-31.6c1.8-11.8,4.1-23.7,4.9-35.6c0.8-10.8-6.3-15.5-16.7-12.4
		c-8,2.4-13.9,7.7-19.2,13.7c-1.3,1.4-1.9,3.5-2.5,4.8c-4.9-6.2-7.8-11.2-12-14.8c-7.8-6.8-22.1-6-32.8,1.2
		c-16.9,11.4-27.2,27.7-32.4,47.1c-3,11.2-3.7,22.7-0.1,34c3.7,11.7,12.9,19,23.2,18.5c8-0.5,15.5-2.6,21.9-7.6
		c22.4-17.4,32.8-40.5,32-68.7c0-1.9,0-4.3,1.1-5.5c3.2-3.8,6.7-7.5,10.7-10.4c2.3-1.7,6.4-3.1,8.5-2.1c1.7,0.8,1.9,5.3,2.5,8.2
		c0.2,1.1-0.2,2.3-0.4,3.5c-3,18.6-6.3,37.1-9,55.7c-0.8,5.7-0.8,11.7,0.2,17.3c1.4,7.9,7.1,10.8,14.9,9.2
		c8.3-1.7,14.3-6.8,18.5-13.4c6.8-10.6,12.7-21.8,19-32.8c0.7-1.1,1.3-2.3,2-3.4c-0.1,7.7-1.6,14.8-2.5,22.1
		c-0.8,6.4-1.5,13-0.9,19.3c0.6,6.4,5.5,9.5,11.9,8.5c3.1-0.4,6.6-1,8.9-2.8c6.4-4.9,12.6-10.3,18.2-16c2.2-2.2,2.8-5.9,4.1-9
		L769.9,277.3z M631.5,289.7c-2.3,2.9-5.5,5.6-8.8,7c-7.6,3.1-14.3,0.1-17.4-7.7c-1.6-4.1-2.6-8.6-3-13
		c-1.7-19.4,1.3-37.9,11.8-54.6c2.7-4.3,6.7-8.4,11.1-11c6.5-3.9,14.5-1.2,17,5.9c2.7,7.5,3.8,15.6,5.6,23.5
		C645.9,257.9,642.9,275.2,631.5,289.7z"/>
	<path class="st0" d="M988.4,16.9c-14.4-2.7-27.5,0.4-38.9,9.6c-14.9,11.9-22.7,28.3-26.7,46.3c-4.1,18.3-7.1,36.9-10,55.5
		c-2,12.5-3.1,25.1-14.3,33.5c-2.9,2.2-5.4,5.1-8.5,6.9c-2.2,1.2-6,2.2-7.6,1.1c-1.6-1.1-2.4-5-2-7.4c2.1-14.8,4.5-29.6,7-44.4
		c2.3-13.1,4.9-26.1,7.4-39.9c-3.2-0.3-5.8-0.6-8.4-0.9c-23.5-2.8-43.5,3.1-58.2,22.8c-13.9,18.6-22.3,38.9-20.7,62.6
		c1.1,15.2,12.1,22.7,24.8,16.6c2.2-1.1,4.3-2.5,6.2-4.1c12.3-10.3,20.2-23.7,26.6-38.2c0.7-1.6,1.6-3.2,2.4-4.8
		c0.5,0.2,0.9,0.3,1.4,0.5c-0.6,3.7-1.2,7.5-1.7,11.2c-1.1,8.1-2.8,16.1-3,24.2c-0.3,10.6,6.3,15.1,16.4,12.4
		c9.5-2.6,15.7-9.6,22.1-16.4c1.2-1.3,2.5-2.7,4.6-5c0,4.2-0.1,6.8,0,9.4c0.5,10.5,6.2,14.7,16.3,11.8c9.9-2.9,16.7-10.2,23.1-17.6
		c4.1-4.6,4.7-12.4,10.1-15.9c-7.1-0.7-7.3,5.3-10.3,8.5c-4,4.2-8,8.5-12.6,12c-0.2,0.1-0.3,0.2-0.5,0.4c-3.9,2.4-9,0.1-10-4.4
		c-0.2-0.8-0.3-1.5-0.5-2.3c-0.1-0.3,0.1-0.7,0.2-1c4.6-27.6,8.9-55.2,14-82.7c2.3-12.2,5.6-24.3,9.3-36.2c2.6-8.4,9-14,18.1-14.1
		c4.8-0.1,9.6,1.9,14.5,2.8c1.6,0.3,4,0.7,4.8-0.1c3.3-3.4,6-7.3,9.3-11.5C990.9,17.7,989.7,17.1,988.4,16.9z M875.3,95.8
		c-0.9,17-9.1,31.1-18.2,44.7c-5.2,7.8-11.6,14.9-17.7,22.1c-1.3,1.6-3.4,2.8-5.3,3.6c-3.8,1.8-7.2,0.7-8.5-3.4
		c-1.2-3.7-1.6-7.8-2-10.1c1.5-20.3,5.7-38.2,15-54.5c8.8-15.5,22.1-13.7,35.5-7.6C875.1,91.1,875.4,94,875.3,95.8z"/>
	<path class="st0" d="M741.5,153c-1.8,3.5-3,7.4-5.5,10.4c-5.7,7-12,13.5-20.9,16.5c-11.5,3.8-18.4-1.1-17.7-13
		c0.6-10.4,2.8-20.7,4.3-31.1c0.2-1.4,0.4-2.9-0.5-4.8c-0.9,1.6-1.7,3.2-2.6,4.8c-6.7,11.3-13,22.8-20.3,33.7
		c-3.7,5.5-9.2,9.6-16,11.3c-8.2,2-15.2-1.7-15.5-10.1c-0.4-10,0.7-20.2,2.1-30.2c2-14.8,5-29.5,7.1-44.4c0,0,0-0.1,0-0.1
		c0.7-4.9-4.2-8.8-9-7.4c-0.8,0.2-1.5,0.5-2.3,0.7c-1.6,0.5-2.8,2-4.8,3.5c5.5-13.2,12.8-17.8,21.5-17c6.2,0.6,10.1,3.1,10.2,9.3
		c0.2,7.6-0.5,15.3-1.7,22.8c-2.3,15.5-5.2,30.8-7.7,46.3c-0.3,2-0.8,4.1-0.4,5.9c0.4,2.3,1.2,5.5,2.8,6.3c1.7,0.8,5.2-0.2,6.6-1.7
		c5.2-5.5,10.6-11.1,14.7-17.5c6.4-10.1,12.2-20.6,17.5-31.3c2.2-4.5,3-9.8,4-14.8c1.3-6.4,2.1-12.8,3.4-19.2
		c0.3-1.5,1.7-3.7,2.8-3.9c4.5-0.8,9.2-0.8,14.5-1.2c-1.5,7.4-2.9,14-4,20.7c-3.7,21.7-7.4,43.3-10.7,65c-0.4,2.5,0.4,6.4,2,7.5
		c1.7,1,5.7,0.2,7.6-1.3c4.9-3.9,9.2-8.5,13.7-13c1.1-1.1,2.1-2.4,3.2-3.6C740.8,152.6,740.6,152.4,741.5,153z"/>
	<path class="st0" d="M973.6,283.4c-7.8,5.4-15.8,10.6-25.6,11.7c-8.9,1-15.1-2.6-17.3-11.3c-1.5-6-1.8-12.4-2.8-19.2
		c12.9-0.7,23.8-3.2,33.3-10.1c13.1-9.5,21.3-21.6,18.9-38.6c-1.6-11.3-9-16.6-20.1-14.8c-3.1,0.5-6.1,1.5-9,2.8
		c-9.8,4.3-16.6,12-22.7,20.5c-12.4,17.3-18.9,36.2-15.7,57.7c2.1,13.7,12.3,27.5,31.3,23.1c13.2-3,24-10.4,34.1-18.9
		c1.5-1.3,1.6-4.2,2.4-6.3c-0.4-0.2-0.8-0.4-1.2-0.7C977.3,280.7,975.5,282.1,973.6,283.4z M946.4,215.6c1.1-1.2,2.5-2.2,3.9-3.1
		c7.5-4.7,13.9-1.7,15.1,7c2.2,15.2-5.4,28.8-19.6,34.5c-5.1,2.1-10.6,3.1-17,4.9C930.7,241.5,935.5,227.3,946.4,215.6z"/>
	<path class="st0" d="M490.9,259.7c16.4-7.1,28-18.5,29.3-37.5c0.9-13.6-6.6-22.5-18.8-21c-5.4,0.7-11.2,2.7-15.7,5.7
		c-14.5,9.4-23.6,23.4-29.5,39.2c-5.3,14.3-7.4,29.1-1.8,43.9c4.6,12.1,14.6,17.6,27.3,15.5c14-2.3,25.1-10.2,35.7-19
		c1.6-1.3,1.8-4.2,2.7-6.4c-0.4-0.3-0.8-0.5-1.2-0.8c-1.7,1.2-3.4,2.5-5.1,3.6c-8.2,5.7-16.5,11.3-27,12.1
		c-4.9,0.4-9.5-0.2-12.7-4.2c-6.3-7.8-6.2-17-5.8-25.3C476.6,263.5,484.2,262.6,490.9,259.7z M486.3,215.4c1.5-1.5,3.3-2.9,5.2-3.8
		c6.4-3.1,11.5-0.6,13.3,6.2c3.7,14.4-4.3,30.1-18.8,36.2c-5.2,2.2-10.9,3.2-17.6,5.1C470.5,241.4,475.2,227,486.3,215.4z"/>
	<path class="st0" d="M827,79.1c-3.4,5.5-6.7,10.6-9.9,15.7c-10.9-3.9-14.3-3.1-21.9,5.5c-11.5,13.1-20.1,28.3-26.3,44.4
		c-3.5,9.1-4,19.5-5.5,29.3c-0.6,4-2.2,5.4-6.1,5.2c-3.5-0.1-6.9,0.4-11.3,0.6c0.7-4.2,1.3-7.8,2-11.5c4-22.4,8-44.8,11.8-67.3
		c0.5-2.9,0.6-6,0.4-9c-0.5-5.4-3.7-7.6-8.1-4.6c-5.3,3.5-9.8,8.3-14.5,12.7c-1.5,1.4-2.7,3.2-4.1,4.8c-0.4-0.2-0.8-0.3-1.2-0.5
		c0.7-2.4,0.7-5.2,2.1-7C740.4,89.7,747,82.4,756,78c3-1.5,6.7-2,10.1-2c5.4-0.1,9.2,3.3,9.4,9.6c0.2,8.2-0.7,16.5-1.4,24.8
		c-0.4,4.4-1.4,8.8-2.1,13.2c0.4,0.2,0.8,0.4,1.2,0.6c0.8-1.4,1.7-2.7,2.3-4.2c7-14.9,15.3-28.8,28.5-39.1
		C811.6,74.9,820.3,74.1,827,79.1z"/>
	<path class="st0" d="M856.9,204c-3.4,5.5-6.7,10.6-9.9,15.7c-10.9-3.9-14.3-3.1-21.9,5.5c-11.5,13.1-20.1,28.3-26.3,44.4
		c-3.5,9.1-4,19.5-5.5,29.3c-0.6,4-2.2,5.4-6.1,5.2c-3.5-0.1-6.9,0.4-11.3,0.6c0.7-4.2,1.3-7.8,2-11.5c4-22.4,8-44.8,11.8-67.3
		c0.5-2.9,0.6-6,0.4-9c-0.5-5.4-3.7-7.6-8.1-4.6c-5.3,3.5-9.8,8.3-14.5,12.7c-1.5,1.4-2.7,3.2-4.1,4.8c-0.4-0.2-0.8-0.3-1.2-0.5
		c0.7-2.4,0.7-5.2,2.1-7c5.9-7.9,12.6-15.2,21.6-19.6c3-1.5,6.7-2,10.1-2c5.4-0.1,9.2,3.3,9.4,9.6c0.2,8.2-0.7,16.5-1.4,24.8
		c-0.4,4.4-1.4,8.8-2.1,13.2c0.4,0.2,0.8,0.4,1.2,0.6c0.8-1.4,1.7-2.7,2.3-4.2c7-14.9,15.3-28.8,28.5-39.1
		C841.5,199.9,850.2,199.1,856.9,204z"/>
	<path class="st0" d="M466.7,203.7c-0.2,0.6-0.3,1.2-0.6,1.8c-3,4.8-5.9,9.6-9.2,14.8c-10.8-7.7-17.1-0.2-23.1,6.8
		c-10.8,12.7-18.9,27.2-24.8,42.5c-3.5,9-4,19.2-5.4,28.9c-0.6,4.3-2.2,6-6.7,5.7c-3.3-0.2-6.6,0.3-10.5,0.6
		c0.3-2.7,0.5-4.9,0.9-7.1c4.2-23.6,8.4-47.2,12.5-70.8c0.6-3.5,0.7-7.3,0.3-10.9c-0.6-4.6-3.6-6.4-7.5-3.9
		c-4.8,3.1-9,7.2-13.2,11.1c-2.2,2.1-4,4.6-6,7c-0.4-0.2-0.7-0.4-1.1-0.5c0.7-2.3,0.8-5.1,2.1-6.9c5.8-7.7,12.3-14.9,21-19.5
		c2-1.1,4.3-1.9,6.6-2.3c8-1.4,13.6,2.2,13.7,10.3c0.1,9.4-1.4,18.8-2.2,28.2c-0.2,2.4-0.5,4.7-0.8,7.1c0.5,0.2,0.9,0.3,1.4,0.5
		c0.8-1.4,1.7-2.8,2.5-4.3c6.7-13.7,14.6-26.6,26.7-36.3C451.3,200,459.2,199.1,466.7,203.7z"/>
	<path class="st0" d="M604.3,160.1c-0.6,8.4,3,11.3,10.8,7.8c4-1.8,7.5-4.8,11.2-7.4c1.7-1.2,3.2-2.8,6-3.9
		c-0.6,2.5-0.4,5.8-1.9,7.5c-6.3,7.3-13.3,14-23.2,16.3c-10.7,2.5-17.5-2.1-18.2-13.1c-0.4-5.6,0.1-11.3,1-16.9
		c3.1-19.9,6.6-39.7,9.9-59.5c0.3-1.8,0.5-3.5,0.8-5.9h-16.9c2.1-4.8,4.2-7.7,9.7-7.4c8.4,0.4,8.5,0.1,10-8.4c0.1-0.3,0.1-0.7,0.2-1
		c2.3-12.8,3.6-13.6,17.5-10.7c-1,6.4-2,12.9-3.2,20.1h22.3c-2.7,5-4.4,8.9-10.7,7.6c-4-0.8-8.3-0.2-13-0.2
		c-1.2,7.3-2.5,14.5-3.7,21.7c-2.5,15.2-5.1,30.5-7.6,45.8C604.8,155.1,604.4,157.6,604.3,160.1z"/>
	<path class="st0" d="M911.6,209.1c-1.4,5.7-2.7,11.3-3.8,17c-0.6,3.1-2.1,3.8-5.3,2.8c0.2-2.2,0.3-4,0.4-5.8
		c0.4-9.1-3.7-13.6-12.8-14.1c-8.4-0.5-15.2,3.2-19.5,10c-4.3,6.8-8.7,14.2-10.3,21.9c-2.4,11.6-3.5,23.7-3.2,35.6
		c0.4,16.2,10.2,22.4,25.4,16.7c7.2-2.7,13.6-7.4,20.4-11.3c1.2-0.7,2.4-1.7,3.5-2.5c0.4,0.2,0.8,0.4,1.2,0.7
		c-0.9,2.2-1.2,5.3-2.8,6.6c-10.7,8.5-21.7,16.6-35.7,18.9c-12.5,2.1-22.5-3.3-27.1-15.1c-5-12.7-3.9-25.6-0.3-38.3
		c5.4-19,15.6-34.9,32.6-45.6c10.8-6.8,22.5-7.5,34.5-2.7C911.3,204.8,912.3,206.2,911.6,209.1z"/>
	<path class="st0" d="M584.6,212.5c-0.5,3.1-1.2,6.2-1.6,9.3c-0.5,3.2-2.1,3.8-5.2,2.5c-0.7-12.6-5.6-17-16.9-15.3
		c-9.1,1.3-14.4,8.7-11.3,17.3c2.4,6.6,6.6,12.6,10.3,18.6c3.7,5.9,8.1,11.4,11.6,17.4c5.2,9.1,4.5,18.2-1.4,26.8
		c-12.5,18.2-35.5,21.2-53.4,10.9c3.3-4,6.5-7.9,9.3-11.3c5.7,2.6,10.8,5.5,16.2,7.3c6.7,2.3,13,0.5,17.6-5
		c4.6-5.5,3.6-11.6,0.1-17.2c-3.5-5.5-7.4-10.6-11.2-15.9c-2.1-3-4.4-5.9-6.3-9c-8-12.8-7.9-23,0.3-34.3
		c7.9-10.9,21.5-16.2,34.3-13.3C586.1,203.7,586.1,203.7,584.6,212.5z"/>
	<path class="st0" d="M1041.6,211.3c-0.4,3.5-1.3,6.9-1.6,10.4c-0.3,3.3-2,3.8-4.8,3c-0.2-0.5-0.6-0.9-0.6-1.4
		c0.2-5.8-0.6-11.2-7.1-13.3c-6.3-2-12.8-2.1-17.8,2.9c-5,5-4.8,11.5-1.9,17.2c3.5,6.8,8.3,12.8,12.3,19.2c3.5,5.6,7.7,11,10.1,17.1
		c4.9,12-1,25-13.9,33.5c-12.1,7.9-28.4,8.2-42.6,0.4c3.5-4.2,6.7-8.1,9.5-11.6c5.5,2.6,10.4,5.4,15.6,7.3
		c6.8,2.4,14.2,0.2,18.1-4.9c4.3-5.7,3.4-11.7-0.1-17.3c-3.6-5.8-7.9-11.1-11.8-16.7c-2.3-3.3-4.6-6.5-6.8-9.9
		c-14.4-21.8,6.8-45.1,24.9-46.3c3.9-0.2,8,0.1,11.9,0.9C1042.4,203.5,1042.5,203.7,1041.6,211.3z"/>
	<g>
		<path class="st1" d="M415.4,50.9c-1.7,0.9-5.1,1.7-9.5,1.7c-10.1,0-17.7-6.4-17.7-18.1c0-11.2,7.6-18.8,18.7-18.8
			c4.5,0,7.3,1,8.5,1.6l-1.1,3.8c-1.8-0.9-4.3-1.5-7.2-1.5c-8.4,0-14,5.4-14,14.8c0,8.8,5.1,14.4,13.8,14.4c2.8,0,5.7-0.6,7.6-1.5
			L415.4,50.9z"/>
		<path class="st1" d="M453.8,40.8l-3.7,11.3h-4.8l12.2-35.9h5.6l12.2,35.9h-4.9l-3.8-11.3H453.8z M465.6,37.2L462,26.9
			c-0.8-2.3-1.3-4.5-1.9-6.5h-0.1c-0.5,2.1-1.1,4.3-1.8,6.5l-3.5,10.4H465.6z"/>
		<path class="st1" d="M507.2,16.2h4.6v32h15.3v3.9h-20V16.2z"/>
		<path class="st1" d="M563.5,16.2v35.9h-4.6V16.2H563.5z"/>
		<path class="st1" d="M598.2,16.2h19.3v3.9h-14.7v11.9h13.6v3.8h-13.6v16.2h-4.6V16.2z"/>
		<path class="st1" d="M681.4,33.8c0,12.3-7.5,18.9-16.7,18.9c-9.5,0-16.1-7.3-16.1-18.2c0-11.4,7.1-18.8,16.7-18.8
			C675,15.7,681.4,23.2,681.4,33.8z M653.5,34.4c0,7.7,4.2,14.5,11.4,14.5c7.3,0,11.5-6.8,11.5-14.9c0-7.1-3.7-14.6-11.4-14.6
			C657.4,19.4,653.5,26.5,653.5,34.4z"/>
		<path class="st1" d="M714,16.7c2.3-0.5,5.7-0.7,8.9-0.7c4.9,0,8.1,0.9,10.4,2.9c1.8,1.6,2.8,4,2.8,6.8c0,4.7-3,7.9-6.8,9.2V35
			c2.8,1,4.4,3.5,5.3,7.2c1.2,5,2,8.5,2.8,9.8h-4.8c-0.6-1-1.4-4.1-2.4-8.6c-1.1-4.9-3-6.8-7.2-7h-4.4v15.5H714V16.7z M718.6,33.1
			h4.7c4.9,0,8.1-2.7,8.1-6.8c0-4.6-3.4-6.7-8.2-6.7c-2.2,0-3.8,0.2-4.6,0.4V33.1z"/>
		<path class="st1" d="M769.2,52.1V16.2h5.1l11.5,18.1c2.7,4.2,4.7,8,6.4,11.7l0.1-0.1c-0.4-4.8-0.5-9.2-0.5-14.7v-15h4.4v35.9h-4.7
			l-11.4-18.2c-2.5-4-4.9-8.1-6.7-12l-0.2,0.1c0.3,4.5,0.4,8.8,0.4,14.8v15.3H769.2z"/>
		<path class="st1" d="M835.5,16.2v35.9h-4.6V16.2H835.5z"/>
		<path class="st1" d="M876,40.8l-3.7,11.3h-4.8l12.2-35.9h5.6l12.2,35.9h-4.9l-3.8-11.3H876z M887.7,37.2l-3.5-10.3
			c-0.8-2.3-1.3-4.5-1.9-6.5h-0.1c-0.5,2.1-1.1,4.3-1.8,6.5l-3.5,10.4H887.7z"/>
	</g>
	<g>
		<path class="st1" d="M396.1,347.7l-3.7,11.3h-4.8l12.2-35.9h5.6l12.2,35.9h-4.9l-3.8-11.3H396.1z M407.9,344.1l-3.5-10.3
			c-0.8-2.3-1.3-4.5-1.9-6.5h-0.1c-0.5,2.1-1.1,4.3-1.8,6.5l-3.5,10.4H407.9z"/>
		<path class="st1" d="M476,357.4c-2.1,0.7-6.2,2-11,2c-5.4,0-9.9-1.4-13.4-4.7c-3.1-3-5-7.8-5-13.4c0.1-10.7,7.4-18.5,19.4-18.5
			c4.2,0,7.4,0.9,8.9,1.6l-1.1,3.8c-1.9-0.9-4.3-1.5-7.9-1.5c-8.7,0-14.4,5.4-14.4,14.4c0,9.1,5.5,14.5,13.8,14.5c3,0,5.1-0.4,6.2-1
			v-10.7h-7.3v-3.7H476V357.4z"/>
		<path class="st1" d="M528.2,342.2h-13.9v12.9h15.5v3.9h-20.2v-35.9H529v3.9h-14.7v11.3h13.9V342.2z"/>
		<path class="st1" d="M562.4,359v-35.9h5.1l11.5,18.1c2.7,4.2,4.7,8,6.4,11.7l0.1-0.1c-0.4-4.8-0.5-9.2-0.5-14.7v-15h4.4V359h-4.7
			l-11.4-18.2c-2.5-4-4.9-8.1-6.7-12l-0.2,0.1c0.3,4.5,0.4,8.8,0.4,14.8V359H562.4z"/>
		<path class="st1" d="M649.1,357.9c-1.7,0.9-5.1,1.7-9.5,1.7c-10.1,0-17.7-6.4-17.7-18.1c0-11.2,7.6-18.8,18.7-18.8
			c4.5,0,7.3,1,8.5,1.6l-1.1,3.8c-1.8-0.9-4.3-1.5-7.2-1.5c-8.4,0-14,5.4-14,14.8c0,8.8,5.1,14.4,13.8,14.4c2.8,0,5.7-0.6,7.6-1.5
			L649.1,357.9z"/>
		<path class="st1" d="M689.7,359v-15.2l-11.3-20.6h5.3l5.1,9.9c1.4,2.7,2.4,4.9,3.6,7.4h0.1c1-2.3,2.2-4.7,3.6-7.4l5.2-9.9h5.3
			l-12,20.6V359H689.7z"/>
	</g>
	<g>
		<path class="st1" d="M302.4,307c0.5,0.6,1,1.3,1.6,2.2c-30.3,27.8-70.7,44.8-115,44.8c-94,0-170.2-76.2-170.2-170.2
			c0-24.9,5.3-48.5,14.9-69.8c1.1-1.2,2.8-2.2,4.1-2.4c42.5-5.1,85.2-8.9,128-8.6c22.3,0.2,44.7,0.9,66.4,6.7
			c7.4,2,14.7,5.4,21.3,9.4c6.5,3.9,7.7,10.5,3,16.4c-4.7,5.9-10.3,11.4-16.4,15.8c-21.8,15.8-46.3,26.9-71.1,36.9
			c-28.8,11.7-58.1,22.2-87.1,33.3c-3.8,1.5-7.3,3.9-10.9,5.8c0.1,0.9,0.3,1.8,0.4,2.7c5.2,0.8,10.4,1.9,15.7,2.3
			c40.7,3.3,81.1,8.2,120.3,20.2c31.3,9.6,60.8,22.6,85.4,44.9C296.1,300.6,299.2,303.8,302.4,307z"/>
		<path class="st1" d="M359.1,183.8c0,0.8,0,1.7,0,2.5c0,1.4,0,2.7-0.1,4.1c-0.7,18.9-4.5,37-10.9,53.9c-0.2,0.4-0.3,0.8-0.5,1.2
			c-0.2,0.5-0.4,0.9-0.6,1.4c-2.7,6.5-5.8,12.9-9.3,19c-11.3-5.9-22-12.4-33.5-17.3c-28.2-11.9-58-17.1-88.4-18.9
			c-32.4-2-64.9-2.8-97.3-4.1c-2.9-0.1-5.8-0.5-8.8-0.8c-0.2-0.6-0.4-1.2-0.6-1.7c2-1.1,3.8-2.6,5.9-3.3
			c11.9-3.9,23.8-7.4,35.7-11.3c38-12.3,75.5-25.9,109.8-47c11.7-7.2,22.7-15.3,30.7-26.7c10.1-14.3,9.2-27.2-2.5-40.3
			c-11.3-12.5-26.2-18.5-41.7-23.3c-22-6.9-44.5-11.6-67.4-13.4c-30.7-2.5-61.4-3.7-92.2-5.4c-2.1-0.1-4.2,0-6.6,0
			c0.1-0.1,0.2-0.3,0.3-0.5c29.3-23.9,66.8-38.3,107.6-38.3c83,0,152.1,59.4,167.1,138c0.1,0.5,0.2,1.1,0.3,1.6
			c1.1,5.9,1.8,11.9,2.3,18c0.1,0.9,0.1,1.7,0.2,2.6C359,177.1,359.1,180.4,359.1,183.8z"/>
	</g>
</g>
</svg>
