<?xml version="1.0" encoding="utf-8"?>
<!-- Generator: Adobe Illustrator 26.0.1, SVG Export Plug-In . SVG Version: 6.00 Build 0)  -->
<svg version="1.1" id="layer" xmlns="http://www.w3.org/2000/svg" xmlns:xlink="http://www.w3.org/1999/xlink" x="0px" y="0px"
	 viewBox="0 0 609 72" style="enable-background:new 0 0 609 72;" xml:space="preserve">
<style type="text/css">
	.st0{fill:#939598;}
	.st1{fill:#7BC143;}
	.st2{fill:#0066AA;}
</style>
<path class="st0" d="M225.9,27.6c0-3.1,2.2-5.7,5.5-5.7c2.1,0,3.3,0.7,4.3,1.7l-1.2,1.4c-0.9-0.9-1.7-1.4-3.1-1.4
	c-2.1,0-3.6,1.7-3.6,3.8s1.5,3.8,3.6,3.8c1.4,0,2.2-0.5,3.1-1.4l1.2,1.2c-1.2,1.2-2.4,1.9-4.5,1.9C228.3,33.1,225.9,30.7,225.9,27.6
	L225.9,27.6z M243.9,22.1h1.7l4.8,10.8h-2.1l-1-2.6h-5.2l-1,2.6h-1.9L243.9,22.1L243.9,22.1z M246.5,28.7l-1.9-4.3l-1.9,4.3H246.5
	L246.5,28.7z M255.1,22.1h1.9v9.1h5.7v1.7h-7.6V22.1L255.1,22.1z M267.5,22.1h1.9V33h-1.9V22.1z M275.4,22.1h8.1v1.7h-6.2v2.9h5.5
	v1.7h-5.5v4.5h-1.9V22.1L275.4,22.1z M287.6,27.6c0-3.1,2.4-5.7,5.7-5.7s5.7,2.6,5.7,5.5c0,3.1-2.4,5.7-5.7,5.7
	C289.8,33.1,287.6,30.7,287.6,27.6z M296.9,27.6c0-2.1-1.5-4-3.6-4c-2.2,0-3.6,1.7-3.6,3.8s1.5,3.8,3.6,3.8
	C295.3,31.4,296.9,29.7,296.9,27.6z M303.6,22.1h4.8c1.4,0,2.4,0.3,3.1,1c0.5,0.5,0.9,1.4,0.9,2.4c0,1.7-1,2.9-2.6,3.3l2.9,4.1h-2.2
	l-2.6-3.8h-2.4v3.8h-1.9L303.6,22.1L303.6,22.1z M308.4,27.6c1.4,0,2.2-0.7,2.2-1.9c0-1.2-0.9-1.7-2.2-1.7h-2.7v3.6
	C305.6,27.6,308.4,27.6,308.4,27.6z M317.5,22.1h1.7l5.8,7.6v-7.6h1.9V33h-1.5l-6-7.7V33h-1.9V22.1z M333,22.1h1.9V33H333V22.1z
	 M343.8,22.1h1.7l4.8,10.8h-2.1l-1-2.6H342l-1,2.6h-1.9L343.8,22.1L343.8,22.1z M346.5,28.7l-1.9-4.3l-1.9,4.3H346.5L346.5,28.7z
	 M363,22.1h4c3.4,0,5.7,2.4,5.7,5.3c0,3.1-2.4,5.5-5.7,5.5h-4V22.1z M367,31.3c2.2,0,3.8-1.5,3.8-3.6s-1.5-3.6-3.8-3.6h-2.1v7.4h2.1
	V31.3z M377.6,22.1h8.1v1.7h-6.2v2.7h5.5v1.7h-5.5v2.9h6.2v1.7h-8.1V22.1z M391.4,22.1h4.3c2.6,0,4.1,1.4,4.1,3.6
	c0,2.4-1.9,3.8-4.3,3.8h-2.2v3.4h-1.9V22.1L391.4,22.1z M395.5,27.8c1.4,0,2.4-0.9,2.4-1.9c0-1.2-0.9-1.9-2.4-1.9h-2.2v4h2.2V27.8z
	 M406.8,22.1h1.7l4.8,10.8h-2.1l-1-2.6H405l-1,2.6h-1.9L406.8,22.1L406.8,22.1z M409.6,28.7l-1.9-4.3l-1.9,4.3H409.6L409.6,28.7z
	 M417.7,22.1h4.8c1.4,0,2.4,0.3,3.1,1c0.5,0.5,0.9,1.4,0.9,2.4c0,1.7-1,2.9-2.6,3.3l2.9,4.1h-2.2l-2.6-3.8h-2.4v3.8h-1.9L417.7,22.1
	L417.7,22.1z M422.3,27.6c1.4,0,2.2-0.7,2.2-1.9c0-1.2-0.9-1.7-2.2-1.7h-2.7v3.6C419.5,27.6,422.3,27.6,422.3,27.6z M434,24h-3.4
	v-1.7h8.8V24H436v9.1h-2V24z M444.5,22.1h2.1l3.3,5.2l3.3-5.2h2.1V33h-1.9v-7.7l-3.4,5.2l-3.4-5.2V33h-1.9V22.1H444.5z M461,22.1
	h8.1v1.7h-6.2v2.7h5.5v1.7h-5.5v2.9h6.2v1.7H461V22.1z M474.4,22.1h1.7l5.8,7.6v-7.6h1.9V33h-1.5l-6-7.7V33h-1.9V22.1z M492.4,24
	H489v-1.7h8.8V24h-3.4v9.1h-1.9C492.4,33.1,492.4,24,492.4,24z M510.1,27.6c0-3.1,2.4-5.7,5.7-5.7s5.7,2.6,5.7,5.5
	c0,3.1-2.4,5.7-5.7,5.7C512.3,33.1,510.1,30.7,510.1,27.6z M519.4,27.6c0-2.1-1.5-4-3.6-4c-2.2,0-3.6,1.7-3.6,3.8s1.5,3.8,3.6,3.8
	C517.8,31.4,519.4,29.7,519.4,27.6z M525.6,22.1h8.1v1.7h-6.2v2.9h5.5v1.7h-5.5v4.5h-1.9C525.6,33,525.6,22.1,525.6,22.1z"/>
<path class="st1" d="M223.8,55.7c0-6.5,5-12,11.9-12c4,0,6.5,1.2,8.9,3.1l-2.6,3.1c-1.7-1.5-3.6-2.4-6.5-2.4c-4.3,0-7.6,3.8-7.6,8.1
	c0,4.8,3.1,8.2,7.9,8.2c2.2,0,4.1-0.7,5.5-1.7v-4.3h-5.8v-3.6h9.8v9.6c-2.2,1.9-5.5,3.6-9.6,3.6C228.7,67.5,223.8,62.4,223.8,55.7z
	 M254.1,44h17.2v3.6h-13.1v6h11.5v3.6h-11.5v6.2h13.2V67H254L254.1,44L254.1,44z M279.5,44h3.8l12.4,16V44h4v23h-3.4l-12.7-16.5V67
	h-4L279.5,44L279.5,44z M308.9,44h17.2v3.6H313v6h11.5v3.6H313v6.2h13.2V67h-17.4L308.9,44L308.9,44z M333.6,44h10.3
	c2.9,0,5.2,0.9,6.7,2.2c1.2,1.2,1.9,2.9,1.9,5c0,3.8-2.2,6-5.5,7l6.2,8.8h-4.8l-5.7-8.1h-5V67h-4.1V44L333.6,44z M343.6,55.5
	c2.9,0,4.8-1.5,4.8-3.8c0-2.4-1.7-3.8-4.8-3.8h-5.8v7.7h5.8V55.5z M367.7,43.8h3.8L381.6,67h-4.3l-2.4-5.5h-11l-2.4,5.5h-4.1
	L367.7,43.8L367.7,43.8z M373.5,57.9l-4-9.3l-4,9.3H373.5z M388.3,44h4.1v19.4h12.2v3.8h-16.2V44H388.3z M419.7,63.7l2.4-2.9
	c2.2,1.9,4.5,2.9,7.2,2.9c2.6,0,4.1-1.2,4.1-2.9c0-1.7-0.9-2.6-5.2-3.6c-5-1.2-7.7-2.6-7.7-6.9c0-4,3.3-6.7,7.9-6.7
	c3.4,0,6,1,8.4,2.9l-2.2,3.1c-2.1-1.5-4.1-2.4-6.4-2.4c-2.4,0-3.8,1.2-3.8,2.7c0,1.7,1,2.6,5.5,3.6c4.8,1.2,7.4,2.9,7.4,6.7
	c0,4.3-3.4,6.9-8.2,6.9C425.7,67.3,422.5,66.1,419.7,63.7L419.7,63.7z M445,44h17.2v3.6h-13.1v6h11.5v3.6h-11.5v6.2h13.2V67H445
	C445,67,445,44,445,44z M471.1,44h10.3c2.9,0,5.2,0.9,6.7,2.2c1.2,1.2,1.9,2.9,1.9,5c0,3.8-2.2,6-5.5,7l6.2,8.8h-4.8l-5.7-8.1h-5V67
	h-4.1V44L471.1,44z M481.1,55.5c2.9,0,4.8-1.5,4.8-3.8c0-2.4-1.7-3.8-4.8-3.8h-5.8v7.7h5.8V55.5z M495,44h4.5l6.9,17.7l6.9-17.7h4.5
	l-9.6,23.2h-3.6L495,44L495,44z M524.5,44h4.1v23h-4.1V44z M535.7,55.7c0-6.7,5-12,11.9-12c4.3,0,6.9,1.5,9.1,3.6l-2.6,2.9
	c-1.9-1.7-3.8-2.9-6.5-2.9c-4.5,0-7.6,3.6-7.6,8.1s3.3,8.2,7.6,8.2c2.9,0,4.6-1.2,6.7-2.9l2.6,2.6c-2.4,2.6-5,4.1-9.5,4.1
	C540.7,67.5,535.7,62.2,535.7,55.7z M563.7,44h17.2v3.6h-13.1v6h11.5v3.6h-11.5v6.2H581V67h-17.4C563.7,67,563.7,44,563.7,44z
	 M586.9,63.7l2.4-2.9c2.2,1.9,4.5,2.9,7.2,2.9c2.6,0,4.1-1.2,4.1-2.9c0-1.7-0.9-2.6-5.2-3.6c-5-1.2-7.7-2.6-7.7-6.9
	c0-4,3.3-6.7,7.9-6.7c3.4,0,6,1,8.4,2.9l-2.2,3.1c-2.1-1.5-4.1-2.4-6.4-2.4c-2.4,0-3.8,1.2-3.8,2.7c0,1.7,1,2.6,5.5,3.6
	c4.8,1.2,7.4,2.9,7.4,6.7c0,4.3-3.4,6.9-8.2,6.9C593.1,67.3,589.7,66.1,586.9,63.7z"/>
<path class="st2" d="M136,67.2H88.6c-7.7,0-14.6-6.7-14.6-14.6v-33C74,12,80.9,5,88.6,5H136v15.3H93c-3.8,0-3.8,3.8-3.8,3.8v24.1
	C89.2,52,93,52,93,52h27.7v-8.2H97.3V28.5H136V67.2z M52,67.2H4.6V28.4h15.3v23.4h27.7c0,0,3.8,0,3.8-3.8V23.9c0,0,0-3.8-3.8-3.8
	h-43V5h47.6c7.7,0,14.4,7,14.4,14.6v33.3C66.6,60.6,59.4,67.2,52,67.2z M158.4,5h45v15.3h-40.7c-3.4,0-3.6,3.3-3.8,3.6v0.9
	c0,3.8,3.8,3.8,3.8,3.8H191c7.7,0,14.6,7,14.6,14.6v9.5c0,7.6-6.5,14.6-14.6,14.6h-45V52h40.7c3.1,0,3.6-2.7,3.6-3.6v-0.9
	c0-3.8-3.8-3.8-3.8-3.8h-28.2c-7.7,0-14.6-6.7-14.6-14.6v-9.5C143.8,12,150.5,5,158.4,5z"/>
</svg>
